<svg width="144" height="118" viewBox="0 0 144 118" fill="none" xmlns="http://www.w3.org/2000/svg">
<g clip-path="url(#clip0_3_8230)">
<path d="M53.0067 90.0848H6.88592C5.22716 90.0831 3.63688 89.4902 2.46396 88.4362C1.29104 87.3823 0.63127 85.9532 0.629395 84.4627V26.1601C0.629395 12.0044 13.4454 0.487808 29.1986 0.487808H53.0068C54.6656 0.489492 56.2558 1.08235 57.4287 2.13631C58.6016 3.19027 59.2614 4.61927 59.2633 6.1098V84.4627C59.2614 85.9532 58.6016 87.3823 57.4287 88.4363C56.2558 89.4902 54.6655 90.0831 53.0067 90.0848Z" fill="#F2F2F2"/>
<path d="M8.49861 51.1559C7.79999 51.1566 7.13021 51.4063 6.63621 51.8502C6.14221 52.2941 5.86433 52.896 5.86353 53.5238V66.8314C5.86432 67.4592 6.1422 68.061 6.6362 68.505C7.13019 68.9489 7.79998 69.1986 8.49861 69.1994H53.3195C54.0181 69.1986 54.6879 68.9489 55.1819 68.505C55.6759 68.061 55.9537 67.4592 55.9545 66.8314V53.5238C55.9537 52.896 55.6759 52.2941 55.1819 51.8502C54.6879 51.4063 54.0181 51.1566 53.3195 51.1559H8.49861Z" fill="white"/>
<path d="M53.4274 42.5222H8.60661C7.85074 42.5214 7.12606 42.2513 6.59158 41.771C6.0571 41.2907 5.75646 40.6395 5.75562 39.9603C5.76092 35.7529 7.62326 31.7192 10.9341 28.7441C14.2449 25.769 18.7338 24.0955 23.416 24.0907H53.4275C54.1833 24.0915 54.908 24.3616 55.4425 24.8419C55.977 25.3222 56.2776 25.9734 56.2785 26.6526V39.9602C56.2776 40.6395 55.9769 41.2907 55.4424 41.771C54.9079 42.2513 54.1832 42.5214 53.4274 42.5222Z" fill="white"/>
<path d="M72.7247 67.1577H21.1287C20.8255 67.1574 20.5347 67.049 20.3203 66.8563C20.1058 66.6636 19.9852 66.4024 19.9849 66.1298V53.9136C19.9852 53.6411 20.1058 53.3798 20.3203 53.1871C20.5347 52.9944 20.8255 52.886 21.1287 52.8857H72.7247C73.0279 52.886 73.3187 52.9944 73.5331 53.1871C73.7476 53.3798 73.8682 53.6411 73.8685 53.9136V66.1298C73.8682 66.4024 73.7476 66.6636 73.5331 66.8563C73.3187 67.049 73.0279 67.1574 72.7247 67.1577Z" fill="white"/>
<path d="M72.7245 67.3517H21.1286C20.7681 67.3514 20.4224 67.2225 20.1675 66.9934C19.9126 66.7644 19.7692 66.4538 19.7688 66.1299V53.9136C19.7692 53.5896 19.9126 53.2791 20.1675 53.05C20.4224 52.8209 20.7681 52.6921 21.1286 52.6917H72.7245C73.085 52.6921 73.4306 52.8209 73.6856 53.05C73.9405 53.2791 74.0839 53.5896 74.0843 53.9136V66.1299C74.0839 66.4538 73.9405 66.7644 73.6856 66.9934C73.4306 67.2225 73.085 67.3514 72.7245 67.3517ZM21.1286 53.0797C20.8825 53.08 20.6467 53.1679 20.4727 53.3243C20.2988 53.4806 20.2009 53.6925 20.2006 53.9136V66.1299C20.2009 66.3509 20.2988 66.5629 20.4727 66.7192C20.6467 66.8755 20.8825 66.9634 21.1286 66.9637H72.7245C72.9705 66.9634 73.2064 66.8755 73.3803 66.7192C73.5543 66.5629 73.6522 66.3509 73.6525 66.1299V53.9136C73.6522 53.6925 73.5543 53.4806 73.3803 53.3243C73.2064 53.1679 72.9705 53.08 72.7245 53.0797L21.1286 53.0797Z" fill="#CCCCCC"/>
<path d="M25.5161 58.6762C26.5412 58.6762 27.3723 57.9294 27.3723 57.0082C27.3723 56.087 26.5412 55.3403 25.5161 55.3403C24.491 55.3403 23.6599 56.087 23.6599 57.0082C23.6599 57.9294 24.491 58.6762 25.5161 58.6762Z" fill="#235EC7"/>
<path d="M69.6405 61.2114H24.2126C24.066 61.2114 23.9255 61.159 23.8218 61.0659C23.7181 60.9727 23.6599 60.8464 23.6599 60.7147C23.6599 60.583 23.7181 60.4566 23.8218 60.3635C23.9255 60.2703 24.066 60.218 24.2126 60.218H69.6405C69.7871 60.218 69.9276 60.2703 70.0313 60.3635C70.135 60.4566 70.1932 60.583 70.1932 60.7147C70.1932 60.8464 70.135 60.9727 70.0313 61.0659C69.9276 61.159 69.7871 61.2114 69.6405 61.2114Z" fill="#235EC7"/>
<path d="M65.1266 63.174H24.2125C24.1399 63.1741 24.0679 63.1614 24.0007 63.1365C23.9335 63.1116 23.8724 63.075 23.821 63.0289C23.7695 62.9827 23.7287 62.9279 23.7009 62.8676C23.673 62.8073 23.6587 62.7426 23.6587 62.6773C23.6587 62.612 23.673 62.5473 23.7009 62.487C23.7287 62.4267 23.7695 62.3719 23.821 62.3257C23.8724 62.2796 23.9335 62.243 24.0007 62.2181C24.0679 62.1932 24.1399 62.1805 24.2125 62.1806H65.1266C65.2732 62.1806 65.4137 62.2329 65.5174 62.3261C65.6211 62.4192 65.6793 62.5456 65.6793 62.6773C65.6793 62.809 65.6211 62.9354 65.5174 63.0285C65.4137 63.1217 65.2732 63.174 65.1266 63.174Z" fill="#235EC7"/>
<path d="M129.66 95.454L88.1794 67.8821C87.9358 67.7198 87.7738 67.4773 87.7289 67.2078C87.684 66.9382 87.76 66.6637 87.94 66.4444L96.0247 56.6231C96.2053 56.4042 96.4752 56.2586 96.7751 56.2183C97.075 56.1779 97.3805 56.2462 97.6245 56.408L139.106 83.9799C139.349 84.1422 139.511 84.3847 139.556 84.6542C139.601 84.9237 139.525 85.1982 139.345 85.4175L131.26 95.2389C131.08 95.4578 130.81 95.6034 130.51 95.6437C130.21 95.684 129.904 95.6158 129.66 95.454Z" fill="white"/>
<path d="M129.532 95.61L88.051 68.0381C87.7614 67.8451 87.5688 67.5569 87.5155 67.2365C87.4621 66.9161 87.5524 66.5898 87.7665 66.3291L95.8511 56.5077C96.0658 56.2475 96.3866 56.0744 96.7431 56.0265C97.0997 55.9786 97.4628 56.0597 97.7529 56.252L139.234 83.8239C139.524 84.0169 139.716 84.3052 139.769 84.6256C139.823 84.9459 139.733 85.2723 139.519 85.5329L131.434 95.3543C131.219 95.6145 130.898 95.7876 130.542 95.8355C130.185 95.8835 129.822 95.8024 129.532 95.61ZM97.4961 56.564C97.2982 56.4327 97.0503 56.3774 96.807 56.4101C96.5637 56.4428 96.3448 56.5609 96.1982 56.7385L88.1136 66.5599C87.9676 66.7378 87.906 66.9604 87.9424 67.1791C87.9788 67.3977 88.1102 67.5944 88.3078 67.7261L129.789 95.298C129.987 95.4293 130.235 95.4846 130.478 95.4519C130.721 95.4192 130.94 95.3011 131.087 95.1235L139.171 85.3022C139.317 85.1243 139.379 84.9016 139.343 84.6829C139.306 84.4643 139.175 84.2676 138.977 84.1359L97.4961 56.564Z" fill="#CCCCCC"/>
<path d="M98.4236 63.7348C99.4487 63.7348 100.28 62.988 100.28 62.0668C100.28 61.1456 99.4487 60.3989 98.4236 60.3989C97.3984 60.3989 96.5674 61.1456 96.5674 62.0668C96.5674 62.988 97.3984 63.7348 98.4236 63.7348Z" fill="#235EC7"/>
<path d="M131.116 89.0253L94.5941 64.7495C94.4763 64.6711 94.3979 64.5539 94.3762 64.4237C94.3545 64.2934 94.3913 64.1607 94.4785 64.0548C94.5657 63.9489 94.6961 63.8784 94.8411 63.8589C94.986 63.8394 95.1337 63.8725 95.2515 63.9508L131.774 88.2266C131.832 88.2654 131.881 88.3142 131.919 88.3701C131.956 88.426 131.981 88.4879 131.992 88.5524C132.002 88.617 131.999 88.6827 131.981 88.746C131.964 88.8093 131.933 88.8689 131.889 88.9213C131.846 88.9738 131.792 89.018 131.73 89.0516C131.668 89.0853 131.599 89.1075 131.527 89.1172C131.455 89.1268 131.382 89.1237 131.311 89.1079C131.241 89.0921 131.175 89.0641 131.116 89.0253Z" fill="#235EC7"/>
<path d="M126.189 88.191L93.2953 66.3274C93.237 66.2886 93.1877 66.2398 93.1503 66.1839C93.1129 66.128 93.0881 66.066 93.0774 66.0015C93.0557 65.8712 93.0925 65.7385 93.1797 65.6326C93.2668 65.5267 93.3973 65.4563 93.5423 65.4368C93.6872 65.4173 93.8349 65.4503 93.9528 65.5287L126.846 87.3924C126.964 87.4707 127.042 87.5879 127.064 87.7182C127.086 87.8485 127.049 87.9812 126.962 88.0871C126.874 88.193 126.744 88.2635 126.599 88.283C126.454 88.3024 126.306 88.2694 126.189 88.191Z" fill="#235EC7"/>
<path d="M110.291 66.4268C110.063 66.2623 109.877 66.0551 109.747 65.8198C109.617 65.5844 109.545 65.3264 109.536 65.0637C109.528 64.8009 109.583 64.5396 109.698 64.2979C109.813 64.0562 109.985 63.8398 110.202 63.6638L106.932 55.1078L109.343 53.7132L113.145 63.9007C113.447 64.2513 113.596 64.6895 113.563 65.1322C113.531 65.5749 113.318 65.9914 112.966 66.3028C112.615 66.6142 112.148 66.7988 111.655 66.8216C111.162 66.8445 110.676 66.704 110.291 66.4268Z" fill="#FFB6B6"/>
<path d="M107.5 42.8198C108.078 45.0153 108.94 46.933 108.823 47.854C108.707 48.7725 109.956 49.655 109.559 50.381C109.163 51.1088 110.383 51.1867 110.053 52.3581C109.722 53.5319 109.507 53.7829 109.786 53.9761C110.068 54.1686 111.554 58.6488 111.554 58.6488L110.682 58.9359L108.138 59.77L102.159 50.9332L102.177 40.0866L103.662 40.0438C104.018 40.1639 104.413 40.3079 104.807 40.4815C106.009 41.0032 107.226 41.7743 107.5 42.8198Z" fill="#E6E6E6"/>
<path d="M85.4833 111.644L82.3742 111.644L80.895 100.868L85.4837 100.868L85.4833 111.644Z" fill="#FFB6B6"/>
<path d="M76.0989 115.766C76.1004 116.079 76.2393 116.379 76.4853 116.601C76.7314 116.822 77.0647 116.948 77.413 116.95H83.266L83.4473 116.612L84.2752 115.077L84.5958 116.612L84.6668 116.95H86.8744L86.8429 116.61L86.2542 110.266L85.4841 110.224L82.1569 110.046L81.3395 110.002V111.896C80.7193 112.488 75.8519 114.73 76.0989 115.766Z" fill="#2F2E41"/>
<path d="M121.909 108.603L119.205 109.982L112 101.265L115.991 99.2299L121.909 108.603Z" fill="#FFB6B6"/>
<path d="M116.01 116.35C116.182 116.622 116.468 116.822 116.804 116.906C117.14 116.99 117.499 116.95 117.803 116.796L118.11 116.64H118.113L122.894 114.201L122.741 112.125L124.113 113.58L125.125 113.062L126.032 112.599L125.23 111.546L121.821 107.061L121.127 107.368L118.134 108.688L117.403 109.012L118.441 110.658C118.229 111.452 115.227 115.556 116.01 116.35Z" fill="#2F2E41"/>
<path d="M100.913 58.7451C105.08 61.226 109.204 85.0614 108.122 84.6723L117.942 101.118L103.964 106.748L94.7736 78.0724L93.2419 88.6251L95.2842 105.372L86.2493 107.335L80 106.934C81.6239 86.9723 85.6782 65.9188 89.0383 57.775L100.913 58.7451Z" fill="#2F2E41"/>
<path d="M104.076 60.5152L104.122 60.6685C99.717 62.8706 96.3942 64.3237 91.5794 62.9908L88.3796 60.4027L86.8877 55.2322L86.9805 42.1943C86.9841 41.6936 87.1021 41.1989 87.3273 40.7409C87.5525 40.2829 87.88 39.8713 88.2896 39.5318C88.6992 39.1924 89.1821 38.9321 89.7083 38.7674C90.2344 38.6026 90.7927 38.5368 91.3484 38.574L94.5136 36.467L99.0197 36.6067L102.034 39.5984L103.834 40.1765L105.234 40.6247C105.516 40.8537 105.825 41.1175 106.121 41.4085L103.908 53.2435L102.966 56.7823L104.076 60.5152Z" fill="#E6E6E6"/>
<path d="M99.5487 35.3546C102.347 33.972 103.367 30.813 101.829 28.2988C100.29 25.7846 96.7746 24.8673 93.9767 26.2499C91.1788 27.6326 90.158 30.7916 91.6966 33.3058C93.2353 35.82 96.7508 36.7373 99.5487 35.3546Z" fill="#FFB6B6"/>
<path d="M104.364 28.9924C104.347 28.9983 104.332 29.0041 104.315 29.01C104.282 29.0231 104.248 29.0342 104.213 29.0432C103.993 29.1159 103.763 29.1634 103.529 29.1844C103.43 29.1941 103.33 29.1989 103.229 29.1987C103.101 29.1991 102.972 29.1916 102.845 29.1763C102.703 29.1607 102.563 29.135 102.426 29.0996C102.361 29.084 102.297 29.0653 102.234 29.0438C101.804 28.9068 101.416 28.6822 101.1 28.3877C100.784 28.0932 100.548 27.7367 100.411 27.3464V27.3445C100.396 27.3063 100.384 27.2675 100.374 27.2282C100.31 27.0098 100.277 26.7849 100.277 26.559V26.5551C100.275 26.0044 100.466 25.4671 100.823 25.0192C101.038 24.7452 101.287 24.6994 101.147 24.386C100.703 23.3864 102.522 22.5692 103.596 23.0087C103.635 23.0054 103.674 23.004 103.713 23.0046C104.436 23.0029 104.704 23.9627 105.136 24.503L105.123 24.5067C105.014 24.5411 104.919 24.6052 104.853 24.6902C104.786 24.7752 104.751 24.8768 104.751 24.9807C104.752 25.0847 104.789 25.1858 104.857 25.27C104.925 25.3542 105.02 25.4172 105.13 25.4502C105.417 25.5343 105.707 25.6085 106 25.673C106.967 26.6987 105.859 29.6995 104.364 28.9924Z" fill="#2F2E41"/>
<path d="M103.832 31.7428C103.514 32.8359 102.925 33.9024 101.949 34.6127C100.971 35.3231 96.3702 37.006 95.9818 35.5653C96.2416 36.5717 96.085 36.9562 95.6672 37.3161C95.5957 37.2289 95.5199 37.1457 95.4419 37.0644C95.1548 36.7671 94.8103 36.5188 94.4251 36.3314C94.4151 36.9392 94.4638 37.5467 94.5705 38.147C94.3984 38.2898 94.2345 38.4404 94.0795 38.5983C93.3355 36.6055 91.7046 34.2186 92.8854 32.4041C93.354 31.684 92.9633 31.5853 92.5482 31.5027C91.8236 31.3584 91.424 28.6862 91.2516 28.0366C91.0377 27.2222 90.953 26.2853 91.5147 25.6166C92.0763 24.9479 93.4969 24.9195 93.7842 25.7162L94.3824 24.9854C95.1553 23.4567 97.2073 23.7625 99.0626 23.96C100.918 24.1557 102.556 25.3277 103.391 26.8294C104.224 28.3311 104.305 30.1178 103.832 31.7428Z" fill="#2F2E41"/>
<path d="M100.908 24.76C100.868 25.6818 101.131 26.5937 101.664 27.3823C102.197 28.1709 102.975 28.8014 103.903 29.1956C104.28 29.349 104.609 28.8468 104.229 28.6922C103.4 28.3485 102.703 27.791 102.227 27.0906C101.751 26.3902 101.517 25.5785 101.555 24.7585C101.577 24.3842 100.929 24.3868 100.908 24.76Z" fill="#235EC7"/>
<path d="M74.1475 60.9929C74.4294 60.9226 74.6909 60.7981 74.914 60.628C75.1371 60.458 75.3164 60.2464 75.4395 60.008C75.5627 59.7695 75.6267 59.5099 75.6272 59.247C75.6277 58.9841 75.5646 58.7243 75.4424 58.4855L82.2045 51.7835L80.6014 49.647L72.6347 57.6598C72.2027 57.8746 71.8733 58.2244 71.7091 58.6428C71.5448 59.0613 71.5571 59.5193 71.7436 59.9302C71.9301 60.341 72.2778 60.6761 72.7209 60.872C73.1639 61.0678 73.6715 61.1109 74.1475 60.9929Z" fill="#FFB6B6"/>
<path d="M93.3692 39.2505C93.3692 39.2505 88.5732 38.4765 87.0785 40.2907C85.5838 42.105 83.9496 43.5602 83.6522 44.4469C83.3549 45.3336 81.8204 45.7001 81.8658 46.5089C81.9112 47.3178 80.7551 46.9564 80.5445 48.1511C80.3339 49.3458 80.4206 49.6537 80.0779 49.7316C79.7352 49.8095 76.4033 53.3981 76.4033 53.3981L79.0493 55.64L88.4228 49.6404L93.3692 39.2505Z" fill="#E6E6E6"/>
<path d="M50.2049 12.0136C52.9033 12.0136 55.0909 10.0479 55.0909 7.62306C55.0909 5.19822 52.9033 3.2325 50.2049 3.2325C47.5064 3.2325 45.3188 5.19822 45.3188 7.62306C45.3188 10.0479 47.5064 12.0136 50.2049 12.0136Z" fill="#235EC7"/>
<path d="M50.205 9.98496C50.1498 9.98496 50.097 9.96527 50.058 9.93023C50.019 9.89519 49.9971 9.84767 49.9971 9.79812V5.47448C49.9971 5.42493 50.019 5.37741 50.058 5.34237C50.097 5.30733 50.1498 5.28764 50.205 5.28764C50.2601 5.28764 50.313 5.30733 50.352 5.34237C50.391 5.37741 50.4129 5.42493 50.4129 5.47448V9.79812C50.4129 9.84767 50.391 9.89519 50.352 9.93023C50.313 9.96527 50.2601 9.98496 50.205 9.98496Z" fill="white"/>
<path d="M52.6107 7.82312H47.7992C47.7441 7.82312 47.6912 7.80344 47.6522 7.7684C47.6132 7.73336 47.5913 7.68584 47.5913 7.63628C47.5913 7.58673 47.6132 7.53921 47.6522 7.50417C47.6912 7.46913 47.7441 7.44945 47.7992 7.44945H52.6107C52.6659 7.44945 52.7188 7.46913 52.7578 7.50417C52.7967 7.53921 52.8186 7.58673 52.8186 7.63628C52.8186 7.68584 52.7967 7.73336 52.7578 7.7684C52.7188 7.80344 52.6659 7.82312 52.6107 7.82312Z" fill="white"/>
<path d="M126.165 116.907L126.136 116.768C125.667 114.443 125.766 112.054 126.428 109.767C127.09 107.481 128.299 105.351 129.969 103.526C130.915 102.509 132 101.603 133.198 100.83L133.312 100.756L133.362 100.874C133.958 102.285 134.71 103.699 135.053 104.325L135.284 99.6536L135.416 99.5907C136.021 99.2995 136.709 99.1777 137.391 99.241C138.073 99.3043 138.719 99.5497 139.245 99.9457C139.789 100.338 140.189 100.869 140.395 101.468C140.601 102.067 140.602 102.708 140.399 103.307C140.219 103.856 140.049 104.426 139.885 104.976C139.321 106.868 138.737 108.825 137.607 110.472C136.738 111.711 135.571 112.761 134.193 113.543C132.814 114.326 131.259 114.822 129.64 114.995L126.165 116.907Z" fill="#F2F2F2"/>
<path d="M143.884 116.873C143.884 116.903 143.878 116.933 143.865 116.961C143.852 116.989 143.833 117.015 143.809 117.036C143.785 117.058 143.757 117.075 143.726 117.086C143.695 117.098 143.661 117.104 143.627 117.104H0.848486C0.780343 117.104 0.71499 117.079 0.666806 117.036C0.618622 116.993 0.591553 116.934 0.591553 116.873C0.591553 116.812 0.618622 116.753 0.666806 116.71C0.71499 116.666 0.780343 116.642 0.848486 116.642H143.627C143.661 116.642 143.695 116.648 143.726 116.659C143.757 116.671 143.785 116.688 143.809 116.709C143.833 116.731 143.852 116.756 143.865 116.784C143.878 116.812 143.884 116.842 143.884 116.873Z" fill="#CCCCCC"/>
</g>
<defs>
<clipPath id="clip0_3_8230">
<rect width="143.293" height="116.616" fill="white" transform="translate(0.591553 0.487808)"/>
</clipPath>
</defs>
</svg>
