<svg width="421" height="274" viewBox="0 0 421 274" fill="none" xmlns="http://www.w3.org/2000/svg">
<g clip-path="url(#clip0_3_8157)">
<path d="M335.382 121.257L336.632 111.526C337.076 108.067 338.916 104.922 341.748 102.781C344.579 100.641 348.17 99.6807 351.73 100.112C355.29 100.544 358.527 102.331 360.731 105.082C362.934 107.833 363.922 111.321 363.478 114.779L362.228 124.511C362.168 124.975 361.921 125.397 361.541 125.685C361.16 125.972 360.678 126.101 360.2 126.044L336.961 123.227C336.483 123.169 336.048 122.929 335.752 122.559C335.456 122.19 335.323 121.722 335.382 121.257Z" fill="#2F2E41"/>
<path d="M346.514 124.16C351.991 124.16 356.432 119.847 356.432 114.526C356.432 109.204 351.991 104.891 346.514 104.891C341.037 104.891 336.597 109.204 336.597 114.526C336.597 119.847 341.037 124.16 346.514 124.16Z" fill="#FFB8B8"/>
<path d="M333.357 111.919C333.711 109.185 335.167 106.698 337.406 105.006C339.645 103.313 342.484 102.553 345.299 102.891L347.303 103.134C350.118 103.478 352.677 104.893 354.419 107.068C356.161 109.243 356.944 112.001 356.596 114.736L356.571 114.931L352.337 114.417L351.398 110.314L350.604 114.207L348.416 113.942L347.942 111.872L347.542 113.836L333.332 112.114L333.357 111.919Z" fill="#2F2E41"/>
<path d="M298.008 148.895C298.311 149.473 298.741 149.979 299.268 150.379C299.794 150.778 300.404 151.06 301.055 151.206C301.706 151.351 302.382 151.356 303.035 151.22C303.688 151.084 304.302 150.811 304.835 150.42L313.843 155.546L318.385 150.988L305.559 143.922C304.823 143.096 303.801 142.562 302.686 142.42C301.571 142.277 300.441 142.537 299.51 143.15C298.579 143.763 297.912 144.686 297.636 145.745C297.359 146.804 297.491 147.924 298.008 148.895Z" fill="#FFB8B8"/>
<path d="M327.531 158.106C320.887 158.106 309.195 155.216 308.547 155.055L308.343 155.004L310.183 145.953L328.041 149.38L337.743 136.107L348.882 135.007L348.571 135.404C348.426 135.59 334.068 153.952 331.833 157.032C331.269 157.809 329.659 158.106 327.531 158.106Z" fill="#3F3D56"/>
<path d="M329.312 192.078L329.047 191.954C328.99 191.928 323.345 189.26 320.421 184.053C317.511 178.87 331.133 156.884 332.086 155.358L332.1 148.376L337.001 135.522L343.25 132.091L337.884 144.254L329.312 192.078Z" fill="#3F3D56"/>
<path d="M323.051 267.123L317.078 267.123L314.237 244.741L323.052 244.741L323.051 267.123Z" fill="#FFB8B8"/>
<path d="M324.575 272.748L305.315 272.747V272.51C305.316 270.579 306.105 268.727 307.511 267.361C308.917 265.995 310.824 265.228 312.812 265.228H312.812L324.575 265.228L324.575 272.748Z" fill="#2F2E41"/>
<path d="M387.207 262.038L381.532 263.844L371.657 243.435L380.034 240.769L387.207 262.038Z" fill="#FFB8B8"/>
<path d="M390.458 266.922L372.156 272.748L372.08 272.523C371.461 270.687 371.618 268.688 372.516 266.965C373.414 265.242 374.98 263.936 376.869 263.335L376.87 263.335L388.048 259.777L390.458 266.922Z" fill="#2F2E41"/>
<path d="M375.643 258.379L358.616 230.763L344.242 201.259L331.307 227.321L326.169 261.075L308.149 261.319L308.22 261.045L335.796 154.597L357.393 157.732L356.41 171.581L356.996 172.39C361.874 179.123 366.919 186.085 364.026 193.589L372.227 217.248L390.382 256.643L375.643 258.379Z" fill="#2F2E41"/>
<path d="M336.783 177.668C333.654 177.668 330.083 174.196 331.936 168.27L331.816 168.185L336.265 149.089C332.382 143.694 337.501 139.242 337.981 138.845L340.424 134.572L351.206 127.929L356.661 171.962L356.58 172.037C352.64 175.699 339.408 177.668 336.783 177.668Z" fill="#235EC7"/>
<path d="M358.863 187.604C358.434 187.61 358.007 187.566 357.589 187.473C357.17 187.37 356.491 186.852 355.442 183.534C351.272 170.343 346.348 130.655 349.926 126.771L350.007 126.682L355.881 127.633C356.369 127.283 358.931 125.546 361.295 125.848C361.781 125.907 362.25 126.063 362.673 126.306C363.095 126.548 363.461 126.872 363.75 127.258L363.79 127.309L365.661 153.169L372.516 183.601L372.352 183.673C371.953 183.849 363.393 187.604 358.863 187.604Z" fill="#3F3D56"/>
<path d="M354.913 177.496C355.581 177.475 356.235 177.311 356.831 177.017C357.426 176.723 357.948 176.306 358.359 175.795C358.771 175.284 359.062 174.691 359.212 174.059C359.362 173.427 359.368 172.77 359.229 172.136L367.827 166.383L365.502 160.455L353.478 168.744C352.396 169.042 351.465 169.715 350.859 170.636C350.254 171.556 350.018 172.661 350.194 173.739C350.371 174.818 350.949 175.797 351.819 176.489C352.689 177.181 353.79 177.54 354.913 177.496Z" fill="#FFB8B8"/>
<path d="M364.99 170.993L357.332 165.537L368.096 151.276L359.835 137.113L363.531 126.846L363.77 127.288C363.881 127.494 374.914 147.911 376.838 151.184C378.84 154.587 365.685 170.173 365.124 170.834L364.99 170.993Z" fill="#3F3D56"/>
<path d="M192.726 235.179L186.208 232.513L181.737 200.77H122.195L117.348 232.383L111.517 235.215C111.238 235.351 111.014 235.574 110.882 235.848C110.75 236.123 110.717 236.433 110.789 236.728C110.86 237.023 111.032 237.285 111.277 237.473C111.521 237.661 111.824 237.764 112.136 237.764H192.189C192.508 237.764 192.818 237.656 193.065 237.46C193.313 237.263 193.483 236.989 193.546 236.685C193.609 236.38 193.562 236.064 193.413 235.79C193.263 235.515 193.02 235.299 192.726 235.179Z" fill="#E6E6E6"/>
<path d="M298.536 204.993H6.04882C4.51422 204.99 3.04365 204.395 1.95974 203.34C0.875835 202.285 0.2671 200.855 0.26709 199.364V159.295H304.318V199.364C304.318 200.855 303.709 202.285 302.625 203.34C301.541 204.395 300.071 204.99 298.536 204.993Z" fill="#CCCCCC"/>
<path d="M304.623 178.232H0V6.78626C0.00213981 4.98703 0.738817 3.26209 2.04842 1.98986C3.35802 0.717634 5.1336 0.00201784 6.98562 0H297.638C299.49 0.00201321 301.265 0.717629 302.575 1.98985C303.885 3.26208 304.621 4.98702 304.623 6.78626V178.232Z" fill="#3F3D56"/>
<path d="M286.43 165.789H18.194C16.7662 165.787 15.3973 165.236 14.3877 164.255C13.3781 163.274 12.8102 161.944 12.8086 160.557V17.6753C12.8102 16.2882 13.3781 14.9583 14.3877 13.9775C15.3973 12.9966 16.7662 12.4449 18.194 12.4433H286.43C287.857 12.4449 289.226 12.9966 290.236 13.9775C291.245 14.9583 291.813 16.2882 291.815 17.6753V160.557C291.813 161.944 291.245 163.274 290.236 164.255C289.226 165.236 287.857 165.787 286.43 165.789Z" fill="white"/>
<path d="M227.538 238.095H76.813C76.6586 238.098 76.5075 238.052 76.3832 237.963C76.2588 237.874 76.1683 237.747 76.1256 237.603C76.099 237.505 76.0959 237.402 76.1165 237.303C76.1372 237.203 76.1811 237.11 76.2448 237.029C76.3086 236.949 76.3904 236.884 76.4842 236.839C76.5779 236.794 76.6809 236.77 76.7854 236.77H227.482C227.645 236.765 227.805 236.813 227.936 236.907C228.067 237.001 228.162 237.135 228.204 237.288C228.226 237.385 228.226 237.486 228.203 237.582C228.18 237.679 228.134 237.769 228.07 237.847C228.006 237.924 227.925 237.987 227.833 238.03C227.741 238.073 227.64 238.095 227.538 238.095Z" fill="#CCCCCC"/>
<path d="M283.566 35.5429H218.802V83.6107H283.566V35.5429Z" fill="#F2F2F2"/>
<path d="M280.348 37.9314H222.02V81.2222H280.348V37.9314Z" fill="white"/>
<path d="M252.208 70.0424C252.216 70.0425 252.224 70.0424 252.231 70.042C256.18 69.8413 259.901 68.1872 262.639 65.416C265.376 62.6449 266.925 58.9647 266.969 55.1239C267.014 51.2832 265.55 47.5702 262.877 44.7401C260.204 41.91 256.522 40.1752 252.579 39.8887C252.53 39.8849 252.481 39.8911 252.435 39.9066C252.389 39.9222 252.347 39.9468 252.311 39.9791C252.275 40.0108 252.246 40.0493 252.226 40.0923C252.207 40.1353 252.196 40.1818 252.196 40.2288L251.856 69.6935C251.855 69.7851 251.892 69.8733 251.958 69.9387C252.024 70.0041 252.114 70.0414 252.208 70.0424Z" fill="#3F3D56"/>
<path d="M240.012 44.7609C240.133 44.7623 240.248 44.8103 240.333 44.8942L250.774 55.2677C250.816 55.3092 250.849 55.3584 250.872 55.4124C250.894 55.4664 250.905 55.5242 250.904 55.5824L250.741 69.6813C250.741 69.7418 250.728 69.8016 250.702 69.8569C250.677 69.9121 250.64 69.9617 250.594 70.0024C250.548 70.0436 250.493 70.0752 250.434 70.0952C250.375 70.1152 250.312 70.1232 250.249 70.1186C247.346 69.9075 244.561 68.9142 242.208 67.2501C239.854 65.586 238.024 63.3172 236.924 60.6985C235.825 58.0799 235.499 55.2152 235.982 52.4264C236.466 49.6375 237.741 47.0351 239.664 44.9114C239.705 44.8656 239.756 44.8286 239.813 44.8028C239.87 44.7769 239.932 44.7627 239.995 44.761C240 44.7609 240.006 44.7608 240.012 44.7609Z" fill="#E6E6E6"/>
<path d="M250.629 39.7682C250.745 39.7696 250.857 39.8139 250.941 39.8922C250.986 39.934 251.022 39.9844 251.046 40.0403C251.07 40.0961 251.082 40.1562 251.081 40.2168L250.935 52.9378C250.934 53.0253 250.906 53.1107 250.855 53.1829C250.804 53.2552 250.732 53.3112 250.648 53.3438C250.565 53.3764 250.473 53.3842 250.385 53.3662C250.297 53.3481 250.216 53.3051 250.153 53.2425L241.042 44.1903C240.998 44.1473 240.965 44.0961 240.942 44.04C240.92 43.9839 240.91 43.9239 240.912 43.8638C240.914 43.8036 240.929 43.7446 240.956 43.6902C240.982 43.6358 241.02 43.5872 241.066 43.5474C243.716 41.2815 247.075 39.9501 250.6 39.7688C250.61 39.7683 250.619 39.7681 250.629 39.7682Z" fill="#235EC7"/>
<path d="M245.935 76.1524C245.929 76.6891 245.759 77.2119 245.447 77.6548C245.135 78.0976 244.695 78.4407 244.182 78.6405C243.669 78.8403 243.107 78.8879 242.567 78.7773C242.026 78.6667 241.531 78.4029 241.145 78.0191C240.759 77.6354 240.499 77.149 240.397 76.6215C240.295 76.094 240.357 75.549 240.574 75.0555C240.791 74.562 241.154 74.1421 241.617 73.849C242.079 73.5558 242.621 73.4026 243.174 73.4086C243.914 73.4175 244.621 73.7114 245.138 74.2257C245.656 74.7401 245.943 75.433 245.935 76.1524Z" fill="#235EC7"/>
<path d="M253.915 76.2393C253.909 76.776 253.739 77.2988 253.427 77.7417C253.115 78.1845 252.675 78.5276 252.162 78.7274C251.649 78.9272 251.087 78.9748 250.547 78.8642C250.006 78.7536 249.511 78.4898 249.125 78.106C248.739 77.7223 248.479 77.2359 248.377 76.7084C248.275 76.1809 248.337 75.6359 248.554 75.1424C248.771 74.6489 249.134 74.2291 249.597 73.9359C250.059 73.6428 250.601 73.4895 251.154 73.4955C251.894 73.5044 252.601 73.7983 253.118 74.3127C253.636 74.827 253.923 75.5199 253.915 76.2393Z" fill="#3F3D56"/>
<path d="M261.895 76.3262C261.889 76.8629 261.719 77.3857 261.407 77.8286C261.095 78.2715 260.655 78.6145 260.142 78.8143C259.629 79.0141 259.067 79.0617 258.527 78.9511C257.986 78.8405 257.491 78.5767 257.105 78.193C256.719 77.8092 256.459 77.3229 256.357 76.7953C256.255 76.2678 256.317 75.7228 256.534 75.2293C256.751 74.7358 257.114 74.316 257.577 74.0228C258.039 73.7297 258.581 73.5764 259.134 73.5824C259.874 73.5913 260.581 73.8852 261.098 74.3996C261.616 74.914 261.903 75.6068 261.895 76.3262Z" fill="#E6E6E6"/>
<path d="M282.884 91.1757H218.12V139.243H282.884V91.1757Z" fill="#F2F2F2"/>
<path d="M279.666 93.5641H221.338V136.855H279.666V93.5641Z" fill="white"/>
<path d="M231.234 107.792C232.572 107.792 233.656 106.739 233.656 105.44C233.656 104.14 232.572 103.087 231.234 103.087C229.897 103.087 228.812 104.14 228.812 105.44C228.812 106.739 229.897 107.792 231.234 107.792Z" fill="#3F3D56"/>
<path d="M270.147 103.609C270.363 103.608 270.577 103.649 270.776 103.73C270.976 103.81 271.157 103.927 271.31 104.075C271.463 104.223 271.584 104.399 271.667 104.593C271.749 104.787 271.792 104.995 271.792 105.204C271.792 105.414 271.749 105.622 271.667 105.816C271.584 106.009 271.463 106.185 271.31 106.334C271.157 106.482 270.976 106.599 270.776 106.679C270.577 106.759 270.363 106.8 270.147 106.8H244.676C244.24 106.8 243.822 106.632 243.514 106.333C243.206 106.033 243.033 105.628 243.033 105.204C243.033 104.781 243.206 104.375 243.514 104.076C243.822 103.777 244.24 103.609 244.676 103.609H270.147ZM270.147 103.218H244.676C244.407 103.218 244.141 103.269 243.892 103.368C243.644 103.468 243.418 103.614 243.228 103.799C243.038 103.983 242.887 104.202 242.784 104.444C242.681 104.685 242.628 104.943 242.628 105.204C242.628 105.466 242.681 105.724 242.784 105.965C242.887 106.206 243.038 106.426 243.228 106.61C243.418 106.795 243.644 106.941 243.892 107.04C244.141 107.14 244.407 107.191 244.676 107.191H270.147C270.416 107.191 270.682 107.14 270.93 107.04C271.179 106.941 271.404 106.795 271.595 106.61C271.785 106.426 271.936 106.206 272.039 105.965C272.142 105.724 272.195 105.466 272.195 105.204C272.195 104.943 272.142 104.685 272.039 104.444C271.936 104.202 271.785 103.983 271.595 103.799C271.404 103.614 271.179 103.468 270.93 103.368C270.682 103.269 270.416 103.218 270.147 103.218Z" fill="#3F3D56"/>
<path d="M260.096 107.191H240.922C240.379 107.191 239.859 106.982 239.476 106.609C239.092 106.237 238.877 105.731 238.877 105.204C238.877 104.678 239.092 104.172 239.476 103.8C239.859 103.427 240.379 103.218 240.922 103.218H260.096C260.638 103.218 261.158 103.427 261.542 103.8C261.925 104.172 262.141 104.678 262.141 105.204C262.141 105.731 261.925 106.237 261.542 106.609C261.158 106.982 260.638 107.191 260.096 107.191Z" fill="#235EC7"/>
<path d="M231.234 117.562C232.572 117.562 233.656 116.509 233.656 115.21C233.656 113.91 232.572 112.857 231.234 112.857C229.897 112.857 228.812 113.91 228.812 115.21C228.812 116.509 229.897 117.562 231.234 117.562Z" fill="#3F3D56"/>
<path d="M270.147 113.379C270.363 113.378 270.577 113.419 270.776 113.499C270.976 113.579 271.157 113.697 271.31 113.845C271.463 113.993 271.584 114.169 271.667 114.363C271.749 114.557 271.792 114.765 271.792 114.974C271.792 115.184 271.749 115.392 271.667 115.586C271.584 115.779 271.463 115.955 271.31 116.104C271.157 116.252 270.976 116.369 270.776 116.449C270.577 116.529 270.363 116.57 270.147 116.57H244.676C244.24 116.57 243.822 116.402 243.514 116.103C243.206 115.803 243.033 115.398 243.033 114.974C243.033 114.551 243.206 114.145 243.514 113.846C243.822 113.547 244.24 113.379 244.676 113.379H270.147ZM270.147 112.988H244.676C244.133 112.988 243.613 113.197 243.23 113.57C242.846 113.942 242.631 114.447 242.631 114.974C242.631 115.501 242.846 116.006 243.23 116.379C243.613 116.751 244.133 116.961 244.676 116.961H270.147C270.689 116.961 271.209 116.751 271.593 116.379C271.976 116.006 272.191 115.501 272.191 114.974C272.191 114.447 271.976 113.942 271.593 113.57C271.209 113.197 270.689 112.988 270.147 112.988Z" fill="#3F3D56"/>
<path d="M267.337 116.961H240.922C240.379 116.961 239.859 116.751 239.476 116.379C239.092 116.006 238.877 115.501 238.877 114.974C238.877 114.447 239.092 113.942 239.476 113.57C239.859 113.197 240.379 112.988 240.922 112.988H267.337C267.879 112.988 268.399 113.197 268.783 113.57C269.166 113.942 269.381 114.447 269.381 114.974C269.381 115.501 269.166 116.006 268.783 116.379C268.399 116.751 267.879 116.961 267.337 116.961Z" fill="#235EC7"/>
<path d="M231.234 127.332C232.572 127.332 233.656 126.279 233.656 124.979C233.656 123.68 232.572 122.627 231.234 122.627C229.897 122.627 228.812 123.68 228.812 124.979C228.812 126.279 229.897 127.332 231.234 127.332Z" fill="#3F3D56"/>
<path d="M270.147 123.149C270.363 123.148 270.577 123.189 270.776 123.269C270.976 123.349 271.157 123.467 271.31 123.615C271.463 123.763 271.584 123.939 271.667 124.133C271.749 124.327 271.792 124.534 271.792 124.744C271.792 124.954 271.749 125.162 271.667 125.355C271.584 125.549 271.463 125.725 271.31 125.873C271.157 126.022 270.976 126.139 270.776 126.219C270.577 126.299 270.363 126.34 270.147 126.34H244.676C244.24 126.34 243.822 126.172 243.514 125.872C243.206 125.573 243.033 125.167 243.033 124.744C243.033 124.321 243.206 123.915 243.514 123.616C243.822 123.317 244.24 123.149 244.676 123.149H270.147ZM270.147 122.758H244.676C244.133 122.758 243.613 122.967 243.23 123.34C242.846 123.712 242.631 124.217 242.631 124.744C242.631 125.271 242.846 125.776 243.23 126.149C243.613 126.521 244.133 126.731 244.676 126.731H270.147C270.689 126.731 271.209 126.521 271.593 126.149C271.976 125.776 272.191 125.271 272.191 124.744C272.191 124.217 271.976 123.712 271.593 123.34C271.209 122.967 270.689 122.758 270.147 122.758Z" fill="#3F3D56"/>
<path d="M251.649 126.731H240.922C240.653 126.731 240.387 126.68 240.138 126.58C239.89 126.481 239.664 126.334 239.474 126.15C239.284 125.965 239.133 125.746 239.03 125.505C238.927 125.264 238.874 125.005 238.874 124.744C238.874 124.483 238.927 124.225 239.03 123.983C239.133 123.742 239.284 123.523 239.474 123.339C239.664 123.154 239.89 123.008 240.138 122.908C240.387 122.808 240.653 122.757 240.922 122.758H251.649C252.19 122.759 252.71 122.968 253.093 123.341C253.475 123.713 253.69 124.218 253.69 124.744C253.69 125.271 253.475 125.775 253.093 126.148C252.71 126.52 252.19 126.73 251.649 126.731Z" fill="#235EC7"/>
<path d="M203.804 44.0472H22.8638V134.135H203.804V44.0472Z" fill="#F2F2F2"/>
<path d="M197.772 48.5237H28.895V129.659H197.772V48.5237Z" fill="white"/>
<path d="M176.828 117.281H53.7197C53.6176 117.281 53.5196 117.242 53.4473 117.171C53.3751 117.101 53.3345 117.006 53.3345 116.907V59.583C53.3345 59.4837 53.3751 59.3885 53.4473 59.3183C53.5196 59.2482 53.6176 59.2087 53.7197 59.2087C53.8219 59.2087 53.9199 59.2482 53.9922 59.3183C54.0644 59.3885 54.105 59.4837 54.105 59.583V116.532H176.828C176.93 116.532 177.028 116.572 177.1 116.642C177.173 116.712 177.213 116.807 177.213 116.907C177.213 117.006 177.173 117.101 177.1 117.171C177.028 117.242 176.93 117.281 176.828 117.281Z" fill="#3F3D56"/>
<path d="M80.0225 113.164H68.8253C68.5221 113.164 68.2314 113.046 68.017 112.838C67.8026 112.63 67.682 112.347 67.6816 112.053V97.0575C67.682 96.763 67.8026 96.4806 68.017 96.2723C68.2314 96.064 68.5221 95.9469 68.8253 95.9465H80.0225C80.3257 95.9469 80.6164 96.064 80.8308 96.2723C81.0452 96.4806 81.1658 96.763 81.1662 97.0575V112.053C81.1658 112.347 81.0452 112.63 80.8308 112.838C80.6164 113.046 80.3257 113.164 80.0225 113.164Z" fill="#235EC7"/>
<path d="M100.442 113.164H89.2452C88.942 113.164 88.6513 113.046 88.4369 112.838C88.2225 112.63 88.1019 112.347 88.1016 112.053V82.8345C88.1019 82.5399 88.2225 82.2576 88.4369 82.0493C88.6513 81.841 88.942 81.7238 89.2452 81.7235H100.442C100.746 81.7238 101.036 81.841 101.251 82.0493C101.465 82.2576 101.586 82.5399 101.586 82.8345V112.053C101.586 112.347 101.465 112.63 101.251 112.838C101.036 113.046 100.746 113.164 100.442 113.164Z" fill="#235EC7"/>
<path d="M120.861 113.164H109.664C109.361 113.164 109.07 113.046 108.856 112.838C108.641 112.63 108.521 112.347 108.521 112.053V97.0575C108.521 96.763 108.641 96.4806 108.856 96.2723C109.07 96.064 109.361 95.9469 109.664 95.9465H120.861C121.165 95.9469 121.455 96.064 121.67 96.2723C121.884 96.4806 122.005 96.763 122.005 97.0575V112.053C122.005 112.347 121.884 112.63 121.67 112.838C121.455 113.046 121.165 113.164 120.861 113.164Z" fill="#235EC7"/>
<path d="M141.281 113.164H130.084C129.788 113.17 129.501 113.062 129.287 112.863C129.072 112.664 128.948 112.391 128.94 112.103V77.1698C128.948 76.882 129.072 76.6087 129.287 76.4099C129.501 76.2111 129.788 76.1029 130.084 76.1091H141.281C141.578 76.1029 141.864 76.2111 142.079 76.4099C142.293 76.6087 142.418 76.882 142.425 77.1698V112.103C142.418 112.391 142.293 112.664 142.079 112.863C141.864 113.062 141.578 113.17 141.281 113.164Z" fill="#235EC7"/>
<path d="M161.701 113.164H150.504C150.2 113.164 149.91 113.046 149.695 112.838C149.481 112.63 149.36 112.347 149.36 112.053V67.1143C149.36 66.8198 149.481 66.5374 149.695 66.3291C149.91 66.1208 150.2 66.0037 150.504 66.0033H161.701C162.004 66.0037 162.295 66.1208 162.509 66.3291C162.723 66.5374 162.844 66.8198 162.844 67.1143V112.053C162.844 112.347 162.723 112.63 162.509 112.838C162.295 113.046 162.004 113.164 161.701 113.164Z" fill="#235EC7"/>
<path d="M74.4239 91.455C75.7006 91.455 76.7356 90.4496 76.7356 89.2093C76.7356 87.969 75.7006 86.9636 74.4239 86.9636C73.1473 86.9636 72.1123 87.969 72.1123 89.2093C72.1123 90.4496 73.1473 91.455 74.4239 91.455Z" fill="#3F3D56"/>
<path d="M94.8434 76.8578C96.1201 76.8578 97.155 75.8523 97.155 74.612C97.155 73.3717 96.1201 72.3663 94.8434 72.3663C93.5667 72.3663 92.5317 73.3717 92.5317 74.612C92.5317 75.8523 93.5667 76.8578 94.8434 76.8578Z" fill="#3F3D56"/>
<path d="M115.263 91.455C116.539 91.455 117.574 90.4496 117.574 89.2093C117.574 87.969 116.539 86.9636 115.263 86.9636C113.986 86.9636 112.951 87.969 112.951 89.2093C112.951 90.4496 113.986 91.455 115.263 91.455Z" fill="#3F3D56"/>
<path d="M135.682 69.7462C136.959 69.7462 137.994 68.7408 137.994 67.5005C137.994 66.2602 136.959 65.2548 135.682 65.2548C134.406 65.2548 133.371 66.2602 133.371 67.5005C133.371 68.7408 134.406 69.7462 135.682 69.7462Z" fill="#3F3D56"/>
<path d="M156.102 61.5119C157.378 61.5119 158.413 60.5064 158.413 59.2661C158.413 58.0258 157.378 57.0204 156.102 57.0204C154.825 57.0204 153.79 58.0258 153.79 59.2661C153.79 60.5064 154.825 61.5119 156.102 61.5119Z" fill="#3F3D56"/>
<path d="M115.312 89.7123L94.8439 74.8186L74.6552 89.5088L74.1934 88.91L94.8439 73.883L115.214 88.706L135.458 67.1853L135.538 67.1532L155.958 59.1606L156.246 59.8549L135.908 67.8158L115.312 89.7123Z" fill="#3F3D56"/>
<path d="M420.554 274H250.375C250.257 274 250.143 273.954 250.06 273.873C249.976 273.792 249.929 273.681 249.929 273.566C249.929 273.451 249.976 273.341 250.06 273.259C250.143 273.178 250.257 273.132 250.375 273.132H420.554C420.672 273.132 420.786 273.178 420.869 273.259C420.953 273.341 421 273.451 421 273.566C421 273.681 420.953 273.792 420.869 273.873C420.786 273.954 420.672 274 420.554 274Z" fill="#CCCCCC"/>
</g>
<defs>
<clipPath id="clip0_3_8157">
<rect width="421" height="274" fill="white"/>
</clipPath>
</defs>
</svg>
